<svg width="143" height="83" viewBox="0 0 143 83" fill="none" xmlns="http://www.w3.org/2000/svg">
<g id="logo">
<g id="XMLID_234_">
<path id="XMLID_243_" d="M9.42298 30.5288V37.1634C9.42298 39.375 8.46144 40.2884 6.15375 40.2884C3.84606 40.2884 2.88452 39.375 2.88452 37.1634V30.2404H0.672983C0.528752 30.2404 0.384521 30.3846 0.384521 30.5288V37.2596C0.384521 40.9615 2.74029 42.2596 6.15375 42.2596C9.56721 42.2596 11.923 40.9615 11.923 37.2596V30.2404H9.71144C9.56721 30.2404 9.42298 30.3365 9.42298 30.5288Z" fill="black"/>
<path id="XMLID_242_" d="M41.5865 32.1634C41.7788 32.1634 41.8749 32.1154 41.923 31.9711L42.548 30.3846C42.5961 30.2884 42.548 30.2404 42.4519 30.2404H33.5096C32.6923 30.2404 32.3557 30.4807 32.3557 31.0577V41.3461C32.3557 41.8269 32.5961 42.0673 33.2211 42.0673H41.5384C41.7307 42.0673 41.8269 42.0192 41.8749 41.875L42.4999 40.2884C42.548 40.1923 42.4999 40.1442 42.4038 40.1442H34.8076V38.0288C34.8076 37.3077 35.1923 36.9711 36.298 36.9711H39.6153C39.8076 36.9711 39.9038 36.923 39.9519 36.7788L40.5769 35.2404C40.6249 35.1442 40.5769 35.0961 40.4807 35.0961H34.8557V32.1154H41.5865V32.1634Z" fill="black"/>
<path id="XMLID_238_" fill-rule="evenodd" clip-rule="evenodd" d="M25.8653 35.8173C26.8268 35.2884 27.2115 34.375 27.2115 33.2211C27.2115 30.625 25.0961 30.2404 22.8845 30.2404H17.8365C17.0192 30.2404 16.6826 30.4807 16.6826 31.0577V41.3461C16.6826 41.8269 16.923 42.0673 17.548 42.0673H23.7499C26.1057 42.0673 27.7403 41.1538 27.7403 38.798C27.7884 37.3557 27.2115 36.1538 25.8653 35.8173ZM19.1826 32.1154H23.0768C24.3749 32.1154 24.7595 32.5961 24.7595 33.6057C24.7595 34.6154 24.3749 35.0961 23.0768 35.0961H19.1826V32.1154ZM19.1826 40.1442H23.5576C24.9518 40.1442 25.3365 39.6634 25.3365 38.5577C25.3365 37.4519 24.9518 36.923 23.5576 36.923H20.673C19.5672 36.923 19.1826 37.2596 19.1826 37.9807V40.1442Z" fill="black"/>
<path id="XMLID_235_" fill-rule="evenodd" clip-rule="evenodd" d="M55.3846 37.3077L58.0288 41.875C58.0769 41.923 58.0769 42.0673 57.9808 42.0673H55.7212C55.5288 42.0673 55.4808 42.0192 55.3846 41.875L52.9808 37.548H50.8173C49.7115 37.548 49.3269 37.8846 49.3269 38.6057V42.0673H47.1635C47.0192 42.0673 46.875 41.923 46.875 41.7788V31.0577C46.875 30.4807 47.2115 30.2404 48.0288 30.2404H53.0769C56.0096 30.2404 57.7885 31.0096 57.7885 33.8942C57.7885 36.1057 56.6827 36.9711 55.3846 37.3077ZM49.2788 35.7211H53.4135C54.9519 35.7211 55.2885 35.1442 55.2885 33.8942C55.2885 32.6923 54.9519 32.1154 53.4135 32.1154H49.2788V35.7211Z" fill="black"/>
</g>
<g id="XMLID_224_">
<path id="XMLID_232_" d="M76.4421 41.0096L76.394 42.0673H67.644V30.2404H76.0575L76.1056 31.3461H68.846V35.4327H75.096V36.3942H68.846V41.0096H76.4421Z" fill="#57AD56" stroke="#57AD56" stroke-width="0.25"/>
<g id="XMLID_229_">
<path fill-rule="evenodd" clip-rule="evenodd" d="M83.7018 38.9904H90.673L92.0192 42.0673H93.3653L87.9326 30.2404H86.5384L81.0576 42.0673H82.3557L83.7018 38.9904ZM84.1345 37.9807L86.6826 32.2596L87.1634 31.0577H87.2115L87.6922 32.2596L90.1922 37.9807H84.1345Z" fill="#57AD56"/>
<path d="M90.673 38.9904L90.7875 38.9403L90.7548 38.8654H90.673V38.9904ZM83.7018 38.9904V38.8654H83.6201L83.5873 38.9403L83.7018 38.9904ZM92.0192 42.0673L91.9046 42.1174L91.9374 42.1923H92.0192V42.0673ZM93.3653 42.0673V42.1923H93.5603L93.4789 42.0151L93.3653 42.0673ZM87.9326 30.2404L88.0462 30.1882L88.0128 30.1154H87.9326V30.2404ZM86.5384 30.2404V30.1154H86.4585L86.425 30.1878L86.5384 30.2404ZM81.0576 42.0673L80.9442 42.0147L80.8619 42.1923H81.0576V42.0673ZM82.3557 42.0673V42.1923H82.4374L82.4702 42.1174L82.3557 42.0673ZM86.6826 32.2596L86.7969 32.3105L86.7987 32.306L86.6826 32.2596ZM84.1345 37.9807L84.0204 37.9299L83.942 38.1057H84.1345V37.9807ZM87.1634 31.0577V30.9327H87.0788L87.0473 31.0112L87.1634 31.0577ZM87.2115 31.0577L87.3275 31.0112L87.2961 30.9327H87.2115V31.0577ZM87.6922 32.2596L87.5761 32.306L87.5777 32.3096L87.6922 32.2596ZM90.1922 37.9807V38.1057H90.3833L90.3068 37.9307L90.1922 37.9807ZM90.673 38.8654H83.7018V39.1154H90.673V38.8654ZM92.1337 42.0172L90.7875 38.9403L90.5585 39.0405L91.9046 42.1174L92.1337 42.0172ZM93.3653 41.9423H92.0192V42.1923H93.3653V41.9423ZM87.819 30.2925L93.2517 42.1195L93.4789 42.0151L88.0462 30.1882L87.819 30.2925ZM86.5384 30.3654H87.9326V30.1154H86.5384V30.3654ZM81.171 42.1198L86.6518 30.2929L86.425 30.1878L80.9442 42.0147L81.171 42.1198ZM82.3557 41.9423H81.0576V42.1923H82.3557V41.9423ZM83.5873 38.9403L82.2412 42.0172L82.4702 42.1174L83.8164 39.0405L83.5873 38.9403ZM86.5684 32.2087L84.0204 37.9299L84.2487 38.0316L86.7968 32.3104L86.5684 32.2087ZM87.0473 31.0112L86.5666 32.2132L86.7987 32.306L87.2794 31.1041L87.0473 31.0112ZM87.2115 30.9327H87.1634V31.1827H87.2115V30.9327ZM87.8083 32.2132L87.3275 31.0112L87.0954 31.1041L87.5762 32.306L87.8083 32.2132ZM90.3068 37.9307L87.8068 32.2095L87.5777 32.3096L90.0777 38.0308L90.3068 37.9307ZM84.1345 38.1057H90.1922V37.8557H84.1345V38.1057Z" fill="#57AD56"/>
</g>
<path id="XMLID_227_" d="M102.019 31.3461V42.0673H100.817V31.3461H96.394L96.4421 30.2404H106.49V31.3461H102.019Z" fill="#57AD56" stroke="#57AD56" stroke-width="0.25"/>
<path id="XMLID_225_" d="M115.048 42.3077C113.413 42.3077 112.115 41.9231 111.058 41.2981L111.25 40.2404C112.356 40.8654 113.606 41.25 115.096 41.25C117.308 41.25 118.461 40.2404 118.461 38.7981C118.461 35.6731 111.25 37.3077 111.25 33.2692C111.25 31.5385 112.548 30 115.577 30C116.971 30 118.221 30.2404 119.231 30.7212L119.038 31.7308C117.933 31.2981 116.875 31.0577 115.625 31.0577C113.269 31.0577 112.404 32.1154 112.404 33.1731C112.404 36.1538 119.615 34.4712 119.615 38.7019C119.567 40.8173 118.029 42.3077 115.048 42.3077Z" fill="#57AD56" stroke="#57AD56" stroke-width="0.25"/>
</g>
</g>
</svg>
