<svg width="199" height="29" viewBox="0 0 199 29" fill="none" xmlns="http://www.w3.org/2000/svg">
<g id="white-logo" filter="url(#filter0_d_16_118)">
<g id="XMLID_234_">
<path id="XMLID_243_" d="M18.4615 1.84615V12.4615C18.4615 16 16.9231 17.4615 13.2308 17.4615C9.53846 17.4615 8 16 8 12.4615V1.38461H4.46154C4.23077 1.38461 4 1.61538 4 1.84615V12.6154C4 18.5385 7.76923 20.6154 13.2308 20.6154C18.6923 20.6154 22.4615 18.5385 22.4615 12.6154V1.38461H18.9231C18.6923 1.38461 18.4615 1.53846 18.4615 1.84615V1.84615Z" fill="white"/>
<path id="XMLID_242_" d="M69.923 4.46154C70.2307 4.46154 70.3846 4.38461 70.4615 4.15384L71.4615 1.61538C71.5384 1.46154 71.4615 1.38461 71.3077 1.38461H57C55.6923 1.38461 55.1538 1.76923 55.1538 2.69231V19.1538C55.1538 19.9231 55.5384 20.3077 56.5384 20.3077H69.8461C70.1538 20.3077 70.3077 20.2308 70.3846 20L71.3846 17.4615C71.4615 17.3077 71.3846 17.2308 71.2307 17.2308H59.0769V13.8462C59.0769 12.6923 59.6923 12.1538 61.4615 12.1538H66.7692C67.0769 12.1538 67.2307 12.0769 67.3077 11.8462L68.3077 9.38461C68.3846 9.23077 68.3077 9.15384 68.1538 9.15384H59.1538V4.38461H69.923V4.46154Z" fill="white"/>
<path id="XMLID_238_" fill-rule="evenodd" clip-rule="evenodd" d="M44.7692 10.3077C46.3077 9.46154 46.9231 8 46.9231 6.15384C46.9231 2 43.5384 1.38461 40 1.38461H31.9231C30.6154 1.38461 30.0769 1.76923 30.0769 2.69231V19.1538C30.0769 19.9231 30.4615 20.3077 31.4615 20.3077H41.3846C45.1538 20.3077 47.7692 18.8462 47.7692 15.0769C47.8461 12.7692 46.9231 10.8462 44.7692 10.3077ZM34.0769 4.38461H40.3077C42.3846 4.38461 43 5.15384 43 6.76923C43 8.38461 42.3846 9.15384 40.3077 9.15384H34.0769V4.38461ZM34.0769 17.2308H41.0769C43.3077 17.2308 43.9231 16.4615 43.9231 14.6923C43.9231 12.9231 43.3077 12.0769 41.0769 12.0769H36.4615C34.6923 12.0769 34.0769 12.6154 34.0769 13.7692V17.2308Z" fill="white"/>
<path id="XMLID_235_" fill-rule="evenodd" clip-rule="evenodd" d="M91.9999 12.6923L96.2307 20C96.3076 20.0769 96.3076 20.3077 96.1538 20.3077H92.5384C92.2307 20.3077 92.1538 20.2308 91.9999 20L88.1538 13.0769H84.6922C82.923 13.0769 82.3076 13.6154 82.3076 14.7692V20.3077H78.8461C78.6153 20.3077 78.3845 20.0769 78.3845 19.8462V2.69231C78.3845 1.76923 78.923 1.38461 80.2307 1.38461H88.3076C92.9999 1.38461 95.8461 2.61538 95.8461 7.23077C95.8461 10.7692 94.0768 12.1538 91.9999 12.6923ZM82.2307 10.1538H88.8461C91.3076 10.1538 91.8461 9.23077 91.8461 7.23077C91.8461 5.30769 91.3076 4.38461 88.8461 4.38461H82.2307V10.1538Z" fill="white"/>
</g>
<g id="XMLID_224_">
<path id="XMLID_232_" d="M125.692 18.6154L125.615 20.3077H111.615V1.38461H125.077L125.154 3.15384H113.539V9.69231H123.539V11.2308H113.539V18.6154H125.692V18.6154Z" fill="#57AD56" stroke="#57AD56" stroke-width="0.25"/>
<g id="XMLID_229_">
<path fill-rule="evenodd" clip-rule="evenodd" d="M137.308 15.3846H148.462L150.615 20.3077H152.769L144.077 1.38461H141.846L133.077 20.3077H135.154L137.308 15.3846ZM138 13.7692L142.077 4.61538L142.846 2.69231H142.923L143.692 4.61538L147.692 13.7692H138Z" fill="#57AD56"/>
<path d="M148.462 15.3846L148.576 15.3345L148.543 15.2596H148.462V15.3846ZM137.308 15.3846V15.2596H137.226L137.193 15.3345L137.308 15.3846ZM150.615 20.3077L150.501 20.3578L150.534 20.4327H150.615V20.3077ZM152.769 20.3077V20.4327H152.964L152.883 20.2555L152.769 20.3077ZM144.077 1.38461L144.19 1.33244L144.157 1.25961H144.077V1.38461ZM141.846 1.38461V1.25961H141.766L141.733 1.33206L141.846 1.38461ZM133.077 20.3077L132.963 20.2551L132.881 20.4327H133.077V20.3077ZM135.154 20.3077V20.4327H135.236L135.268 20.3578L135.154 20.3077ZM142.077 4.61538L142.191 4.66628L142.193 4.66181L142.077 4.61538ZM138 13.7692L137.886 13.7184L137.807 13.8942H138V13.7692ZM142.846 2.69231V2.56731H142.762L142.73 2.64588L142.846 2.69231ZM142.923 2.69231L143.039 2.64588L143.008 2.56731H142.923V2.69231ZM143.692 4.61538L143.576 4.66183L143.578 4.66543L143.692 4.61538ZM147.692 13.7692V13.8942H147.883L147.807 13.7192L147.692 13.7692ZM148.462 15.2596H137.308V15.5096H148.462V15.2596ZM150.73 20.2576L148.576 15.3345L148.347 15.4347L150.501 20.3578L150.73 20.2576ZM152.769 20.1827H150.615V20.4327H152.769V20.1827ZM143.963 1.43679L152.656 20.3599L152.883 20.2555L144.19 1.33244L143.963 1.43679ZM141.846 1.50961H144.077V1.25961H141.846V1.50961ZM133.19 20.3602L141.96 1.43717L141.733 1.33206L132.963 20.2551L133.19 20.3602ZM135.154 20.1827H133.077V20.4327H135.154V20.1827ZM137.193 15.3345L135.039 20.2576L135.268 20.3578L137.422 15.4347L137.193 15.3345ZM141.963 4.56453L137.886 13.7184L138.114 13.8201L142.191 4.66624L141.963 4.56453ZM142.73 2.64588L141.961 4.56896L142.193 4.66181L142.962 2.73873L142.73 2.64588ZM142.923 2.56731H142.846V2.81731H142.923V2.56731ZM143.808 4.56896L143.039 2.64588L142.807 2.73873L143.576 4.66181L143.808 4.56896ZM147.807 13.7192L143.807 4.56533L143.578 4.66543L147.578 13.8193L147.807 13.7192ZM138 13.8942H147.692V13.6442H138V13.8942Z" fill="#57AD56"/>
</g>
<path id="XMLID_227_" d="M166.615 3.15384V20.3077H164.692V3.15384H157.615L157.692 1.38461H173.769V3.15384H166.615V3.15384Z" fill="#57AD56" stroke="#57AD56" stroke-width="0.25"/>
<path id="XMLID_225_" d="M187.462 20.6923C184.846 20.6923 182.769 20.0769 181.077 19.0769L181.385 17.3846C183.154 18.3846 185.154 19 187.538 19C191.077 19 192.923 17.3846 192.923 15.0769C192.923 10.0769 181.385 12.6923 181.385 6.23077C181.385 3.46154 183.462 1 188.308 1C190.538 1 192.538 1.38462 194.154 2.15385L193.846 3.76923C192.077 3.07692 190.385 2.69231 188.385 2.69231C184.615 2.69231 183.231 4.38462 183.231 6.07692C183.231 10.8462 194.769 8.15385 194.769 14.9231C194.692 18.3077 192.231 20.6923 187.462 20.6923V20.6923Z" fill="#57AD56" stroke="#57AD56" stroke-width="0.25"/>
</g>
</g>
<defs>
<filter id="filter0_d_16_118" x="0" y="0.875" width="198.894" height="27.9423" filterUnits="userSpaceOnUse" color-interpolation-filters="sRGB">
<feFlood flood-opacity="0" result="BackgroundImageFix"/>
<feColorMatrix in="SourceAlpha" type="matrix" values="0 0 0 0 0 0 0 0 0 0 0 0 0 0 0 0 0 0 127 0" result="hardAlpha"/>
<feOffset dy="4"/>
<feGaussianBlur stdDeviation="2"/>
<feComposite in2="hardAlpha" operator="out"/>
<feColorMatrix type="matrix" values="0 0 0 0 0 0 0 0 0 0 0 0 0 0 0 0 0 0 0.25 0"/>
<feBlend mode="normal" in2="BackgroundImageFix" result="effect1_dropShadow_16_118"/>
<feBlend mode="normal" in="SourceGraphic" in2="effect1_dropShadow_16_118" result="shape"/>
</filter>
</defs>
</svg>
